<?xml version="1.0" encoding="UTF-8" standalone="no"?>
<!DOCTYPE svg PUBLIC "-//W3C//DTD SVG 1.1//EN" "http://www.w3.org/Graphics/SVG/1.1/DTD/svg11.dtd">
<svg width="100%" height="100%" viewBox="0 0 178 60" version="1.1" xmlns="http://www.w3.org/2000/svg" xmlns:xlink="http://www.w3.org/1999/xlink" xml:space="preserve" xmlns:serif="http://www.serif.com/" style="fill-rule:evenodd;clip-rule:evenodd;stroke-linejoin:round;stroke-miterlimit:2;">
    <path d="M72.281,38.553C71.15,38.046 70.333,37.285 69.704,36.334C69.076,35.383 68.761,34.305 68.699,33.036L71.653,33.036C71.715,34.114 72.218,35.002 72.973,35.7C73.727,36.397 74.858,36.714 76.115,36.714C77.247,36.714 78.126,36.461 78.818,36.017C79.509,35.509 79.886,34.875 79.886,33.988C79.886,33.353 79.698,32.846 79.321,32.466C78.944,32.085 78.441,31.832 77.812,31.641C77.184,31.451 76.241,31.261 75.047,31.007L74.921,31.007C73.79,30.817 72.784,30.563 71.967,30.183C71.15,29.802 70.458,29.295 69.893,28.598C69.39,27.9 69.138,26.949 69.138,25.808C69.138,24.73 69.39,23.779 69.956,22.954C70.521,22.13 71.275,21.496 72.281,20.989C73.287,20.545 74.418,20.291 75.675,20.291C76.995,20.291 78.189,20.545 79.195,21.052C80.263,21.559 81.081,22.193 81.646,23.081C82.275,23.969 82.589,24.983 82.589,26.061L79.635,26.061C79.509,25.11 79.069,24.349 78.378,23.779C77.687,23.208 76.744,22.891 75.675,22.891C74.607,22.891 73.727,23.145 73.098,23.588C72.47,24.032 72.155,24.73 72.155,25.554C72.155,26.188 72.344,26.632 72.721,27.013C73.098,27.33 73.601,27.647 74.23,27.837C74.858,28.027 75.738,28.217 76.932,28.471C78.126,28.661 79.132,28.978 80.012,29.295C80.892,29.612 81.583,30.183 82.149,30.881C82.715,31.578 82.966,32.529 82.966,33.67C82.966,34.749 82.652,35.7 82.086,36.587C81.521,37.475 80.703,38.109 79.635,38.616C78.566,39.124 77.435,39.314 76.115,39.314C74.67,39.377 73.35,39.124 72.281,38.553Z" style="fill:rgb(230,0,0);fill-rule:nonzero;"/>
    <path d="M95.851,26.252C96.794,26.822 97.548,27.583 98.114,28.661C98.679,29.739 98.931,30.944 98.931,32.402C98.931,33.797 98.679,35.002 98.114,36.017C97.548,37.095 96.794,37.919 95.851,38.49C94.908,39.06 93.777,39.377 92.583,39.377C91.388,39.377 90.383,39.124 89.566,38.616C88.749,38.109 88.183,37.412 87.743,36.587L88.12,35.953L88.12,44.577L85.292,44.577L85.292,25.618L87.743,25.618L88.309,28.978L87.68,28.344C88.183,27.52 88.812,26.822 89.566,26.252C90.383,25.744 91.326,25.491 92.52,25.491C93.777,25.427 94.845,25.744 95.851,26.252ZM90.006,28.408C89.377,28.788 88.937,29.295 88.623,29.993C88.309,30.69 88.12,31.451 88.12,32.339C88.12,33.227 88.309,34.051 88.623,34.748C88.937,35.446 89.44,35.953 90.006,36.397C90.634,36.778 91.263,36.968 92.08,36.968C92.834,36.968 93.525,36.778 94.154,36.397C94.783,36.017 95.223,35.446 95.537,34.812C95.851,34.114 96.04,33.353 96.04,32.466C96.04,31.578 95.851,30.817 95.537,30.119C95.223,29.422 94.783,28.915 94.154,28.534C93.525,28.154 92.834,27.964 92.08,27.964C91.263,27.837 90.571,28.027 90.006,28.408Z" style="fill:rgb(230,0,0);fill-rule:nonzero;"/>
    <path d="M104.022,38.49C102.953,37.919 102.136,37.095 101.571,36.017C101.005,34.939 100.691,33.734 100.691,32.402C100.691,31.007 101.005,29.802 101.571,28.725C102.136,27.647 102.953,26.886 104.022,26.315C105.09,25.744 106.285,25.427 107.605,25.427C108.987,25.427 110.182,25.744 111.187,26.315C112.256,26.886 113.073,27.71 113.638,28.725C114.204,29.802 114.518,31.007 114.518,32.402C114.518,33.797 114.204,35.002 113.638,36.08C113.073,37.158 112.256,37.919 111.187,38.553C110.119,39.124 108.924,39.441 107.605,39.441C106.222,39.377 105.028,39.06 104.022,38.49ZM109.679,36.334C110.307,35.953 110.747,35.446 111.061,34.749C111.376,34.051 111.564,33.29 111.564,32.402C111.564,31.515 111.376,30.754 111.061,30.056C110.747,29.359 110.307,28.851 109.679,28.471C109.05,28.09 108.359,27.9 107.605,27.9C106.85,27.9 106.096,28.09 105.53,28.471C104.902,28.851 104.462,29.359 104.148,30.056C103.833,30.754 103.645,31.515 103.645,32.402C103.645,33.29 103.833,34.051 104.148,34.749C104.462,35.446 104.965,35.953 105.53,36.334C106.159,36.714 106.85,36.904 107.605,36.904C108.359,36.904 109.113,36.714 109.679,36.334Z" style="fill:rgb(230,0,0);fill-rule:nonzero;"/>
    <path d="M119.295,25.618L119.798,28.978L119.232,28.344C119.61,27.52 120.175,26.822 120.804,26.378C121.432,25.871 122.375,25.681 123.569,25.681L124.198,25.681L124.198,28.344L122.941,28.344C121.747,28.344 120.929,28.725 120.364,29.485C119.861,30.246 119.547,31.261 119.547,32.466L119.547,39.314L116.718,39.314L116.718,25.618L119.295,25.618Z" style="fill:rgb(230,0,0);fill-rule:nonzero;"/>
    <path d="M126.083,21.75L128.912,21.75L128.912,25.554L132.18,25.554L132.18,28.027L128.912,28.027L128.912,35.129C128.912,35.7 129.037,36.08 129.226,36.27C129.415,36.524 129.792,36.587 130.295,36.587L132.494,36.587L132.494,39.124L129.729,39.124C128.472,39.124 127.529,38.807 126.963,38.236C126.398,37.665 126.083,36.714 126.083,35.446L126.083,21.75Z" style="fill:rgb(230,0,0);fill-rule:nonzero;"/>
    <path d="M137.208,38.553C136.077,38.046 135.26,37.285 134.631,36.334C134.003,35.383 133.689,34.305 133.626,33.036L136.58,33.036C136.643,34.114 137.145,35.002 137.9,35.7C138.654,36.397 139.785,36.714 141.042,36.714C142.174,36.714 143.054,36.461 143.745,36.017C144.436,35.509 144.814,34.875 144.814,33.988C144.814,33.353 144.625,32.846 144.248,32.466C143.871,32.085 143.368,31.832 142.739,31.641C142.111,31.451 141.168,31.261 139.974,31.007L139.848,31.007C138.717,30.817 137.711,30.563 136.894,30.183C136.077,29.802 135.386,29.295 134.82,28.598C134.317,27.9 134.066,26.949 134.066,25.808C134.066,24.73 134.317,23.779 134.883,22.954C135.448,22.13 136.203,21.496 137.208,20.989C138.214,20.545 139.345,20.291 140.602,20.291C141.922,20.291 143.117,20.545 144.122,21.052C145.191,21.559 146.008,22.193 146.573,23.081C147.202,23.969 147.516,24.983 147.516,26.061L144.562,26.061C144.436,25.11 143.996,24.349 143.305,23.779C142.614,23.208 141.671,22.891 140.602,22.891C139.534,22.891 138.654,23.145 138.025,23.588C137.397,24.032 137.083,24.73 137.083,25.554C137.083,26.188 137.271,26.632 137.648,27.013C138.025,27.33 138.528,27.647 139.157,27.837C139.785,28.027 140.665,28.217 141.859,28.471C143.054,28.661 144.059,28.978 144.939,29.295C145.819,29.612 146.511,30.183 147.076,30.881C147.642,31.578 147.893,32.529 147.893,33.67C147.893,34.749 147.579,35.7 147.013,36.587C146.448,37.475 145.631,38.109 144.562,38.616C143.494,39.124 142.362,39.314 141.042,39.314C139.597,39.377 138.34,39.124 137.208,38.553Z" style="fill:rgb(230,0,0);fill-rule:nonzero;"/>
    <path d="M153.047,38.49C151.979,37.919 151.162,37.095 150.596,36.08C150.03,35.002 149.716,33.797 149.716,32.402C149.716,31.007 149.968,29.739 150.533,28.725C151.099,27.71 151.853,26.886 152.859,26.315C153.864,25.744 154.996,25.427 156.316,25.427C157.636,25.427 158.767,25.681 159.773,26.188C160.778,26.695 161.533,27.456 162.098,28.471C162.664,29.485 162.978,30.627 162.978,31.895L162.978,32.402C162.978,32.593 162.978,32.783 162.915,32.973L152.733,32.973L152.733,33.1C152.796,33.861 152.922,34.558 153.236,35.129C153.55,35.7 153.99,36.144 154.556,36.461C155.121,36.778 155.75,36.968 156.504,36.968C157.384,36.968 158.138,36.778 158.704,36.334C159.333,35.89 159.71,35.319 159.898,34.558L162.79,34.558C162.601,35.446 162.287,36.27 161.721,36.968C161.155,37.665 160.464,38.236 159.647,38.68C158.767,39.06 157.824,39.314 156.756,39.314C155.31,39.377 154.053,39.06 153.047,38.49ZM154.744,28.154C154.242,28.408 153.802,28.788 153.487,29.295C153.173,29.802 152.922,30.31 152.859,30.944L160.087,30.944C159.961,29.929 159.584,29.105 158.956,28.598C158.327,28.027 157.447,27.773 156.441,27.773C155.813,27.71 155.247,27.837 154.744,28.154Z" style="fill:rgb(230,0,0);fill-rule:nonzero;"/>
    <path d="M168.069,38.49C167.001,37.919 166.184,37.095 165.618,36.08C165.052,35.002 164.738,33.797 164.738,32.402C164.738,31.007 164.989,29.739 165.555,28.725C166.121,27.71 166.875,26.886 167.881,26.315C168.886,25.744 170.018,25.427 171.338,25.427C172.658,25.427 173.789,25.681 174.795,26.188C175.8,26.695 176.554,27.456 177.12,28.471C177.686,29.485 178,30.627 178,31.895L178,32.402C178,32.593 178,32.783 177.937,32.973L167.755,32.973L167.755,33.1C167.818,33.861 167.944,34.558 168.258,35.129C168.572,35.7 169.012,36.144 169.578,36.461C170.143,36.778 170.772,36.968 171.526,36.968C172.406,36.968 173.16,36.778 173.726,36.334C174.355,35.89 174.732,35.319 174.92,34.558L177.811,34.558C177.623,35.446 177.309,36.27 176.743,36.968C176.177,37.665 175.486,38.236 174.669,38.68C173.789,39.06 172.846,39.314 171.778,39.314C170.332,39.377 169.138,39.06 168.069,38.49ZM169.766,28.154C169.263,28.408 168.823,28.788 168.509,29.295C168.195,29.802 167.944,30.31 167.881,30.944L175.109,30.944C174.983,29.929 174.606,29.105 173.977,28.598C173.349,28.027 172.469,27.773 171.463,27.773C170.835,27.71 170.269,27.837 169.766,28.154Z" style="fill:rgb(230,0,0);fill-rule:nonzero;"/>
    <path d="M29.598,58.703C45.393,58.703 58.196,45.786 58.196,29.851C58.196,13.917 45.393,1 29.598,1C13.804,1 1,13.917 1,29.851C1,45.786 13.804,58.703 29.598,58.703Z" style="fill:rgb(255,1,1);fill-rule:nonzero;"/>
    <path d="M41.917,17.423C44.556,17.423 46.694,15.265 46.694,12.604C46.694,9.942 44.556,7.785 41.917,7.785C39.279,7.785 37.141,9.942 37.141,12.604C37.141,15.265 39.279,17.423 41.917,17.423Z" style="fill:rgb(2,2,3);fill-rule:nonzero;"/>
    <g>
        <path d="M8.213,49.008C9.274,50.212 10.432,51.325 11.676,52.336L24.444,37.461L33.181,39.49L27.21,48.938C26.581,50.079 26.958,51.474 28.09,52.108C29.095,52.679 30.415,52.425 31.107,51.411L38.775,39.173C39.215,38.538 39.278,37.714 39.026,37.017C38.712,36.319 38.146,35.812 37.392,35.685L30.667,34.1L36.763,24.462L40.535,30.422C40.849,30.929 41.415,31.246 42.043,31.246C42.357,31.246 42.672,31.183 42.986,30.993L51.597,25.793C52.477,25.286 52.728,24.145 52.225,23.32C51.722,22.432 50.591,22.179 49.774,22.686L42.609,26.998L39.152,20.213C38.209,19.262 37.141,18.311 36.072,17.487L25.827,12.287C25.136,11.97 24.381,12.033 23.816,12.541L15.268,20.34C14.513,21.037 14.451,22.179 15.142,22.876C15.833,23.637 16.965,23.701 17.656,23.003L25.387,16.028L30.73,18.755L21.553,33.085L8.213,49.008Z" style="fill:rgb(2,2,3);"/>
    </g>
</svg>
